<?xml version="1.0" encoding="UTF-8" standalone="no"?>
<!-- Generator: Adobe Illustrator 18.1.0, SVG Export Plug-In . SVG Version: 6.00 Build 0)  -->

<svg
   xmlns:dc="http://purl.org/dc/elements/1.1/"
   xmlns:cc="http://creativecommons.org/ns#"
   xmlns:rdf="http://www.w3.org/1999/02/22-rdf-syntax-ns#"
   xmlns:svg="http://www.w3.org/2000/svg"
   xmlns="http://www.w3.org/2000/svg"
   xmlns:sodipodi="http://sodipodi.sourceforge.net/DTD/sodipodi-0.dtd"
   xmlns:inkscape="http://www.inkscape.org/namespaces/inkscape"
   version="1.1"
   id="Gopher"
   x="0px"
   y="0px"
   viewBox="0 0 255.99997 255.99995"
   enable-background="new 0 0 215.6 281.6"
   xml:space="preserve"
   sodipodi:docname="gopher-front.svg"
   width="256"
   height="255.99998"
   inkscape:export-filename="/home/kyoh86/Projects/github.com/kyoh86/gopher/images/gopher-front-64.png"
   inkscape:export-xdpi="96"
   inkscape:export-ydpi="96"
   inkscape:version="0.92.4 5da689c313, 2019-01-14"><metadata
   id="metadata4010"><rdf:RDF><cc:Work
       rdf:about=""><dc:format>image/svg+xml</dc:format><dc:type
         rdf:resource="http://purl.org/dc/dcmitype/StillImage" /><dc:title></dc:title><cc:license
         rdf:resource="" /></cc:Work></rdf:RDF></metadata><defs
   id="defs4008"><clipPath
     clipPathUnits="userSpaceOnUse"
     id="clipPath4981"><rect
       style="fill:#00ff00;fill-opacity:0.67835364;stroke-width:1.00703454"
       id="rect4983"
       width="200.71638"
       height="201.51297"
       x="8.141613"
       y="10.7" /></clipPath></defs><sodipodi:namedview
   pagecolor="#ffffff"
   bordercolor="#666666"
   borderopacity="1"
   objecttolerance="10"
   gridtolerance="10"
   guidetolerance="10"
   inkscape:pageopacity="0"
   inkscape:pageshadow="2"
   inkscape:window-width="3840"
   inkscape:window-height="2048"
   id="namedview4006"
   showgrid="false"
   fit-margin-top="0"
   fit-margin-left="0"
   fit-margin-right="0"
   fit-margin-bottom="0"
   units="px"
   inkscape:zoom="1"
   inkscape:cx="148"
   inkscape:cy="126.69422"
   inkscape:window-x="0"
   inkscape:window-y="54"
   inkscape:window-maximized="1"
   inkscape:current-layer="g4003" />
<g
   id="g4003"
   transform="translate(19.999999,14.399996)">
	
	
	
	
	
	
	
	
	
	<g
   id="g4903"
   clip-path="url(#clipPath4981)"
   transform="matrix(1.2754315,0,0,1.2703896,-30.384069,-27.993165)"
   inkscape:export-xdpi="96"
   inkscape:export-ydpi="96"><g
     inkscape:label="Clip"
     id="g4901"><path
       id="path3965"
       d="m 207.3,44.6 c -6.7,-13.7 -22.9,-1.6 -27,-5.9 -21,-21.6 -46.4,-27 -66.3,-28 0,0 -9,0 -11,0 -20,0.5 -45.4,6.3 -66.3,28 -4.1,4.3 -20.4,-7.8 -27,5.9 -7.7,16 15.7,17.6 14.5,24.7 -2.3,12.8 -0.8,31.8 1,50.5 2.8,31.7 -20.9,107.6 28.4,138.1 9.3,5.8 34.4,9 56.2,9.5 v 0 c 0,0 0.1,0 0.1,0 0,0 0.1,0 0.1,0 v 0 c 21.8,-0.5 43.9,-3.7 53.2,-9.5 49.4,-30.5 25.7,-106.4 28.6,-138.1 1.7,-18.7 3.2,-37.7 1,-50.5 -1.2,-7.1 22.2,-8.8 14.5,-24.7 z"
       inkscape:connector-curvature="0"
       style="fill:#8cc5e7" /><g
       id="g3973">
		<path
   id="path3967"
   d="m 143.2,54.3 c -33.4,3.9 -28.9,38.7 -16,50 24,21 49,0 46.2,-21.2 -2.5,-20.4 -19.8,-30 -30.2,-28.8 z"
   inkscape:connector-curvature="0"
   style="fill:#e0dedc" />
		<circle
   id="circle3969"
   r="11.4"
   cy="84.300003"
   cx="145.5"
   style="fill:#111212" />
		<circle
   id="circle3971"
   r="3.5999999"
   cy="79.400002"
   cx="142.5"
   style="fill:#ffffff" />
	</g><g
       id="g3981">
		<path
   id="path3975"
   d="m 108.5,107 c -16,2.4 -21.7,7 -20.5,14.2 2,11.8 39.7,10.5 40.9,0.6 1,-8.5 -14.1,-15.7 -20.4,-14.8 z"
   inkscape:connector-curvature="0"
   style="fill:#b8937f" />
		<path
   id="path3977"
   d="m 98.2,111.8 c -2.7,9.8 21.7,8.3 21.1,2 -0.3,-3.7 -3.6,-8.4 -12.3,-8.2 -3.4,0.1 -7.6,1.6 -8.8,6.2 z"
   inkscape:connector-curvature="0" />
		<path
   id="path3979"
   d="m 99,127.7 c -0.9,0.4 -2.4,10.2 2.2,10.7 3.1,0.3 11.6,1.3 13.6,0 3.9,-2.5 3.5,-8.5 1.3,-10 C 112.4,126 100,127.2 99,127.7 Z"
   inkscape:connector-curvature="0"
   style="fill:#e0dedc" />
	</g><g
       id="g3989">
		<path
   id="path3983"
   d="m 73.6,54.3 c 33.4,3.9 28.9,38.7 16,50 -24,21 -49,0 -46.2,-21.2 2.6,-20.4 19.9,-30 30.2,-28.8 z"
   inkscape:connector-curvature="0"
   style="fill:#e0dedc" />
		<circle
   id="circle3985"
   r="11.4"
   cy="84.300003"
   cx="71.400002"
   style="fill:#111212" />
		<circle
   id="circle3987"
   r="3.5999999"
   cy="79.400002"
   cx="74.400002"
   style="fill:#ffffff" />
	</g><path
       id="path3991"
       d="m 193.6,186.7 c 11,0.1 5.6,-23.5 -1.2,-18.8 -3.3,2.3 -3.9,7.6 -3.9,12.1 0,2.5 2,6.6 5.1,6.7 z"
       inkscape:connector-curvature="0"
       style="fill:#b8937f" /><path
       id="path3993"
       d="m 23.3,186.7 c -11,0.1 -5.6,-23.5 1.2,-18.8 3.3,2.3 3.9,7.6 3.9,12.1 0,2.5 -2,6.6 -5.1,6.7 z"
       inkscape:connector-curvature="0"
       style="fill:#b8937f" /><path
       id="path3995"
       d="m 172.7,259.2 c -6,-8.9 -11.4,-2 -20.1,2.4 -4.1,2.1 6.8,9.6 19,4 3.2,-1.5 3.1,-3.5 1.1,-6.4 z"
       inkscape:connector-curvature="0"
       style="fill:#b8937f" /><path
       id="path3997"
       d="m 44.2,260.2 c 6,-8.9 11.4,-2 20.1,2.4 4.1,2.1 -6.8,9.6 -19,4 -3.2,-1.5 -3.1,-3.5 -1.1,-6.4 z"
       inkscape:connector-curvature="0"
       style="fill:#b8937f" /><path
       id="path3999"
       d="m 188.6,47 c -0.6,2.1 2.1,1.8 3.1,8.3 0.4,2.4 9,-3.5 5.5,-7.8 -2.9,-3.6 -8.1,-2.6 -8.6,-0.5 z"
       inkscape:connector-curvature="0"
       style="fill:#3c89bf" /><path
       id="path4001"
       d="m 28.3,47 c 0.6,2.1 -2.1,1.8 -3.1,8.3 -0.4,2.4 -9,-3.5 -5.5,-7.8 2.8,-3.6 8,-2.6 8.6,-0.5 z"
       inkscape:connector-curvature="0"
       style="fill:#3c89bf" /></g></g>
</g>
</svg>